<svg width="39" height="35" viewBox="0 0 39 35" fill="none" xmlns="http://www.w3.org/2000/svg">
<path fill-rule="evenodd" clip-rule="evenodd" d="M33.8013 11.7593C34.6702 11.0711 35.5391 10.3891 36.5013 9.63862V10.1604V24.9956V25.2087C36.5076 25.6288 36.2633 25.8169 35.8811 25.8671C35.7458 25.8821 35.6105 25.8811 35.4752 25.8801C35.4414 25.8799 35.4075 25.8796 35.3737 25.8796H27.4742C26.7976 25.8796 26.4029 26.237 26.4029 26.8076C26.4029 27.3782 26.8039 27.7168 27.4804 27.7168H35.6306C37.3032 27.7168 38.3305 26.6822 38.3305 25.0081V11.7781C38.3305 11.4425 38.3312 11.1063 38.3319 10.7696V10.7682C38.3333 10.0924 38.3347 9.41475 38.3305 8.73711C38.3243 7.51443 37.6728 6.64916 36.4825 6.33565C36.0941 6.22906 35.6807 6.20398 35.2735 6.20398H13.1848C13.1458 6.20398 13.1055 6.20703 13.0651 6.21008H13.0651C12.976 6.21682 12.8866 6.22359 12.809 6.19771C12.6711 6.15382 12.4957 6.0723 12.4331 5.95944C12.2264 5.56756 12.0259 5.17254 11.8254 4.77752C11.625 4.3825 11.4245 3.98749 11.2178 3.5956C10.6415 2.5046 9.95236 1.49511 8.98762 0.705074C8.24215 0.0968718 7.39644 -0.241715 6.4505 0.203464C5.89296 0.466809 5.34168 0.761505 4.84679 1.13144C1.43263 3.68338 -0.146021 7.13196 0.0105918 11.3706C0.104559 13.9727 0.818713 16.4306 2.06535 18.6941C3.71918 21.6849 5.44191 24.6382 7.2085 27.5663C8.3737 29.5038 9.89598 31.1591 11.7503 32.457C15.9725 35.4102 20.364 35.8993 24.9809 33.3536C26.2526 32.6576 26.5846 31.5541 26.2526 30.3314C25.551 27.7795 24.1227 25.6476 22.3247 23.7353C22.233 23.638 22.1273 23.5594 22.0196 23.4793L22.0196 23.4793L21.9677 23.4406C20.7022 22.4687 19.2489 22.3684 17.8644 23.1584C17.7485 23.2242 17.6322 23.2893 17.516 23.3543C17.1671 23.5495 16.8182 23.7447 16.48 23.961C15.8723 24.3497 15.2584 24.3435 14.6319 24.0613C14.0055 23.7791 13.4918 23.3528 13.141 22.7446C12.7453 22.061 12.3485 21.3775 11.9515 20.6938L11.9506 20.6921L11.9504 20.6918C11.0405 19.1246 10.1302 17.5565 9.23194 15.9854C9.0628 15.6844 8.91871 15.3458 8.8686 15.0072C8.74957 14.1796 8.74331 13.3331 9.48252 12.7625C9.87572 12.4605 10.3123 12.2219 10.6461 12.0395C10.7697 11.972 10.8792 11.9121 10.9672 11.8596C11.0917 11.937 11.2058 12.004 11.3115 12.066L11.3116 12.066C11.5143 12.185 11.6856 12.2856 11.838 12.4051C13.7049 13.8683 15.5719 15.337 17.4388 16.8057C18.3721 17.5399 19.3054 18.2741 20.2387 19.0076C21.7296 20.1801 23.089 20.1864 24.5737 19.0201L33.8013 11.7593ZM19.1236 33.1655C20.7899 33.1154 22.425 32.7454 23.9222 31.8363L23.9533 31.8176C24.6116 31.4224 24.6213 31.4166 24.4609 30.6387C24.4501 30.579 24.4299 30.524 24.4084 30.4656L24.4084 30.4656L24.3983 30.438C23.941 28.8893 23.0326 27.5726 22.118 26.2809C21.7421 25.748 21.2598 25.2714 20.7649 24.8388C20.176 24.3246 19.512 24.2682 18.8229 24.7071C18.3155 25.0332 17.7892 25.3404 17.2505 25.6038C16.8621 25.7919 16.4486 25.9862 16.0289 26.0239C14.0869 26.1994 12.6022 25.378 11.6124 23.7353C10.8615 22.4861 10.1344 21.2231 9.40768 19.9607C8.84304 18.9799 8.27861 17.9995 7.7034 17.0262C7.15212 16.0982 6.88901 15.1138 6.98298 14.0416C7.10201 12.7186 7.64075 11.6402 8.84354 10.963C9.10665 10.8163 9.36977 10.6628 9.63288 10.5093C9.80828 10.407 9.98368 10.3046 10.1591 10.2043C11.224 9.58985 11.4746 9.09451 11.1363 7.90945C10.5725 5.90928 9.57022 4.12229 8.24841 2.52341C8.05421 2.29142 7.7911 2.10331 7.53426 1.94029C7.43403 1.87132 7.2273 1.87132 7.11454 1.92775L7.11027 1.92998C6.67936 2.155 6.23621 2.38642 5.84284 2.67389C3.23681 4.60509 1.90874 7.21347 1.8273 10.4426C1.75839 13.2391 2.55398 15.8412 3.90085 18.2614C5.3918 20.9262 6.93913 23.5534 8.49273 26.1869C9.3447 27.6227 10.4097 28.9018 11.65 30.0179C13.7549 31.9052 16.1542 33.1216 19.1111 33.1655H19.1236ZM12.6316 10.7139C12.5786 10.6781 12.523 10.6406 12.4644 10.5993L12.4582 10.6056C12.9906 9.82811 13.141 8.98791 13.0345 8.0662H35.5303C35.262 8.2781 35.0092 8.47864 34.764 8.67322C34.494 8.88743 34.2331 9.09443 33.9705 9.30142C32.2289 10.6715 30.4857 12.04 28.7425 13.4085C26.9995 14.7769 25.2565 16.1453 23.515 17.5153C22.6317 18.205 22.1744 18.1987 21.3036 17.5153C18.5102 15.3149 15.7105 13.1145 12.9108 10.9141L12.9092 10.9128C12.8232 10.8432 12.7318 10.7815 12.6316 10.7139Z" fill="#0C2746"/>
</svg>
